<svg width="16" height="16" viewBox="0 0 16 16" fill="none" xmlns="http://www.w3.org/2000/svg">
<path d="M13.5625 8.52343L8.37657 2.54687C8.32969 2.49279 8.27174 2.44942 8.20663 2.4197C8.14153 2.38997 8.07079 2.37459 7.99922 2.37459C7.92766 2.37459 7.85692 2.38997 7.79182 2.4197C7.72671 2.44942 7.66876 2.49279 7.62188 2.54687L2.4375 8.52343C2.42183 8.54145 2.41168 8.56358 2.40824 8.58721C2.4048 8.61083 2.40822 8.63495 2.4181 8.65668C2.42798 8.67842 2.4439 8.69685 2.46396 8.70979C2.48402 8.72274 2.50738 8.72964 2.53125 8.72968H3.79688C3.86875 8.72968 3.9375 8.69843 3.98594 8.64374L7.40625 4.70156V13.5C7.40625 13.5687 7.4625 13.625 7.53126 13.625H8.46876C8.53751 13.625 8.59376 13.5687 8.59376 13.5V4.70156L12.0141 8.64374C12.0609 8.69843 12.1297 8.72968 12.2031 8.72968H13.4688C13.575 8.72968 13.6328 8.60468 13.5625 8.52343Z" fill="white"/>
</svg>
