<svg width="98" height="55" viewBox="0 0 98 55" fill="none" xmlns="http://www.w3.org/2000/svg">
<path d="M84.4966 41.5364H87V46C87 46.5523 86.5523 47 86 47H12C11.4477 47 11 46.5523 11 46V12.4541L13.2345 15.4925C13.7328 16.1699 14.7939 15.9673 15.0074 15.1539L15.9017 11.7461C16.0171 11.3065 16.4145 11 16.869 11H20.0614C20.341 11 20.6077 11.117 20.7971 11.3227L23.0066 13.7226C23.3065 14.0483 23.7849 14.1381 24.1825 13.9431L26.1437 12.9816C26.7039 12.7069 27.376 13.0066 27.5461 13.6069L29.4467 20.3163C29.6728 21.1144 30.7163 21.3061 31.2113 20.6404L32.695 18.6451C32.9443 18.31 33.4605 18.3601 33.6406 18.7369C33.7937 19.0572 34.2041 19.1532 34.4834 18.9341L34.8859 18.6184C35.3585 18.2476 36.0515 18.3943 36.3333 18.9249L37.7388 21.5709C37.9562 21.9803 38.4264 22.1866 38.8749 22.0693L39.9333 21.7926C40.4635 21.6539 41.0065 21.9679 41.1509 22.4965L43.5446 31.2592C43.6243 31.5513 43.8321 31.7915 44.1097 31.9124L46.9841 33.1651C47.4666 33.3754 48.0295 33.1756 48.2716 32.7082L49.9299 29.5061C50.3096 28.773 51.364 28.7898 51.7201 29.5347L52.0739 30.2748C52.1831 30.5034 52.3751 30.682 52.6109 30.7745L54.5813 31.5473C54.8616 31.6573 55.0775 31.8877 55.1689 32.1746L56.4851 36.3046C56.5859 36.621 56.8372 36.8667 57.1557 36.9604L60.018 37.8023C60.2353 37.8663 60.4245 38.0021 60.5545 38.1876L62.1457 40.4571C62.5258 40.9992 63.3183 41.0289 63.738 40.5168L64.3961 39.7138C64.7292 39.3072 65.3203 39.228 65.7488 39.5325L70.1839 42.6841C70.5391 42.9366 71.017 42.9299 71.365 42.6676L72.2518 41.9992C72.6138 41.7263 73.1142 41.7312 73.4709 42.011L74.4477 42.7773C74.6238 42.9154 74.8411 42.9905 75.0649 42.9905H77.9903C78.2686 42.9905 78.5344 42.8745 78.7236 42.6704L81.308 39.8828C81.736 39.4211 82.479 39.465 82.8496 39.9739L83.6883 41.1252C83.8765 41.3836 84.1769 41.5364 84.4966 41.5364Z" fill="url(#paint0_linear_0_84)"/>
<g filter="url(#filter0_f_0_84)">
<path d="M86.5476 41.5364H84.4965C84.1768 41.5364 83.8764 41.3836 83.6882 41.1252L82.8496 39.9739C82.4789 39.465 81.736 39.4211 81.308 39.8828L78.7236 42.6704C78.5344 42.8745 78.2686 42.9905 77.9903 42.9905H75.0649C74.8411 42.9905 74.6238 42.9154 74.4477 42.7773L73.636 42.1406C73.208 41.8048 72.5901 41.8728 72.2453 42.2935L71.4364 43.2806C71.0779 43.7182 70.428 43.7714 70.003 43.398L65.7653 39.6748C65.3403 39.3014 64.6904 39.3546 64.3318 39.7922L63.7379 40.5168C63.3183 41.0289 62.5258 40.9992 62.1457 40.4571L60.5545 38.1876C60.4245 38.0021 60.2353 37.8663 60.0179 37.8023L57.1557 36.9603C56.8371 36.8667 56.5859 36.621 56.4851 36.3046L55.1689 32.1746C55.0774 31.8877 54.8616 31.6573 54.5812 31.5473L52.6109 30.7745C52.375 30.682 52.1831 30.5034 52.0738 30.2748L51.72 29.5347C51.3639 28.7898 50.3095 28.7729 49.9298 29.5061L48.2715 32.7082C48.0295 33.1756 47.4666 33.3754 46.984 33.1651L44.1097 31.9124C43.8321 31.7915 43.6243 31.5513 43.5445 31.2592L41.1509 22.4965C41.0065 21.9679 40.4634 21.6539 39.9332 21.7926L38.8749 22.0693C38.4264 22.1866 37.9562 21.9803 37.7387 21.5709L36.3333 18.9249C36.0515 18.3943 35.3585 18.2476 34.8858 18.6184L34.4834 18.9341C34.2041 19.1532 33.7937 19.0572 33.6406 18.7369V18.7369C33.4604 18.3601 32.9442 18.31 32.695 18.6451L31.2113 20.6404C30.7163 21.3061 29.6728 21.1144 29.4467 20.3163L27.546 13.6069C27.376 13.0066 26.7039 12.7069 26.1437 12.9816L24.1824 13.9431C23.7849 14.1381 23.3064 14.0483 23.0065 13.7226L20.797 11.3227C20.6077 11.117 20.3409 11 20.0614 11H16.8689C16.4144 11 16.0171 11.3065 15.9017 11.7461L15.0551 14.972C14.8338 15.815 13.7151 15.9912 13.2454 15.257L11.4524 12.4541" stroke="#F6543E" stroke-linecap="round"/>
</g>
<path d="M86.5476 41.5364H84.4965C84.1768 41.5364 83.8764 41.3836 83.6882 41.1252L82.8496 39.9739C82.4789 39.465 81.736 39.4211 81.308 39.8828L78.7236 42.6704C78.5344 42.8745 78.2686 42.9905 77.9903 42.9905H75.0649C74.8411 42.9905 74.6238 42.9154 74.4477 42.7773L73.636 42.1406C73.208 41.8048 72.5901 41.8728 72.2453 42.2935L71.4364 43.2806C71.0779 43.7182 70.428 43.7714 70.003 43.398L65.7653 39.6748C65.3403 39.3014 64.6904 39.3546 64.3318 39.7922L63.7379 40.5168C63.3183 41.0289 62.5258 40.9992 62.1457 40.4571L60.5545 38.1876C60.4245 38.0021 60.2353 37.8663 60.0179 37.8023L57.1557 36.9603C56.8371 36.8667 56.5859 36.621 56.4851 36.3046L55.1689 32.1746C55.0774 31.8877 54.8616 31.6573 54.5812 31.5473L52.6109 30.7745C52.375 30.682 52.1831 30.5034 52.0738 30.2748L51.72 29.5347C51.3639 28.7898 50.3095 28.7729 49.9298 29.5061L48.2715 32.7082C48.0295 33.1756 47.4666 33.3754 46.984 33.1651L44.1097 31.9124C43.8321 31.7915 43.6243 31.5513 43.5445 31.2592L41.1509 22.4965C41.0065 21.9679 40.4634 21.6539 39.9332 21.7926L38.8749 22.0693C38.4264 22.1866 37.9562 21.9803 37.7387 21.5709L36.3333 18.9249C36.0515 18.3943 35.3585 18.2476 34.8858 18.6184L34.4834 18.9341C34.2041 19.1532 33.7937 19.0572 33.6406 18.7369V18.7369C33.4604 18.3601 32.9442 18.31 32.695 18.6451L31.2113 20.6404C30.7163 21.3061 29.6728 21.1144 29.4467 20.3163L27.546 13.6069C27.376 13.0066 26.7039 12.7069 26.1437 12.9816L24.1824 13.9431C23.7849 14.1381 23.3064 14.0483 23.0065 13.7226L20.797 11.3227C20.6077 11.117 20.3409 11 20.0614 11H16.8689C16.4144 11 16.0171 11.3065 15.9017 11.7461L15.0551 14.972C14.8338 15.815 13.7151 15.9912 13.2454 15.257L11.4524 12.4541" stroke="#F6543E" stroke-linecap="round"/>
<defs>
<filter id="filter0_f_0_84" x="0.952271" y="0.5" width="96.0953" height="53.6468" filterUnits="userSpaceOnUse" color-interpolation-filters="sRGB">
<feFlood flood-opacity="0" result="BackgroundImageFix"/>
<feBlend mode="normal" in="SourceGraphic" in2="BackgroundImageFix" result="shape"/>
<feGaussianBlur stdDeviation="5" result="effect1_foregroundBlur_0_84"/>
</filter>
<linearGradient id="paint0_linear_0_84" x1="49" y1="11" x2="49" y2="47" gradientUnits="userSpaceOnUse">
<stop stop-color="#DA3821"/>
<stop offset="1" stop-color="#221E34" stop-opacity="0"/>
</linearGradient>
</defs>
</svg>
