<svg width="105" height="53" viewBox="0 0 105 53" fill="none" xmlns="http://www.w3.org/2000/svg">
<path d="M12.7255 41.4496L11 39.8571V44C11 44.5523 11.4477 45 12 45H94C94.5523 45 95 44.5523 95 44V28.0714L93.6739 32.4775C93.6135 32.6779 93.4918 32.8543 93.3259 32.982L92.2211 33.8316C91.6542 34.2677 90.826 33.9848 90.6443 33.293L88.9527 26.8531C88.8372 26.4136 88.4399 26.1071 87.9855 26.1071H87.2743C86.8122 26.1071 86.4102 25.7905 86.3021 25.3412L85.5905 22.3859C85.3987 21.5896 84.338 21.4263 83.9156 22.128C83.7499 22.4031 83.4522 22.5714 83.131 22.5714H79.5731C79.2783 22.5714 78.9985 22.4413 78.8084 22.2159L78.1986 21.4922C77.7114 20.9141 76.7837 21.0648 76.5046 21.7674L75.1481 25.1816C74.7893 26.0848 73.4833 25.9971 73.2484 25.0541L71.2414 16.9967C71.1899 16.79 71.0738 16.6052 70.91 16.4691L68.7054 14.6379C68.4653 14.4385 68.1458 14.3626 67.8416 14.4328L65.686 14.9302C65.236 15.034 64.7734 14.8161 64.5668 14.403L63.2506 11.7711C62.8837 11.0374 61.838 11.0333 61.4653 11.7641L59.7067 15.2132C59.4056 15.8036 58.5553 15.7834 58.2826 15.1794C57.9993 14.5518 57.1046 14.5617 56.8353 15.1955L55.736 17.7825C55.3758 18.6301 54.1583 18.5814 53.867 17.7077L52.3329 13.1063C52.0208 12.1701 50.685 12.204 50.4208 13.1549L48.6629 19.482C48.5427 19.9148 48.1486 20.2143 47.6994 20.2143H47.2217C46.7779 20.2143 46.3871 20.5068 46.2621 20.9327L42.8321 32.6209C42.8001 32.73 42.7498 32.8328 42.6832 32.9249L39.0011 38.0223C38.6177 38.5531 37.8361 38.5783 37.4193 38.0734L36.4486 36.8976C36.1665 36.5559 35.6932 36.4406 35.2856 36.6142L32.809 37.6691C32.4835 37.8078 32.2555 38.1081 32.2094 38.4589L31.8305 41.3445C31.7651 41.8422 31.3409 42.2143 30.839 42.2143H29.1717C28.8146 42.2143 28.4845 42.0238 28.3059 41.7146L26.0132 37.7473C25.6378 37.0977 24.7073 37.0775 24.3041 37.7101L21.6678 41.8462C21.304 42.4171 20.4899 42.469 20.0564 41.949L17.5003 38.8822C17.0823 38.3807 16.3038 38.4077 15.9215 38.9369L14.2143 41.3003C13.8632 41.7864 13.1661 41.8563 12.7255 41.4496Z" fill="url(#paint0_linear_0_113)"/>
<g filter="url(#filter0_f_0_113)">
<path d="M11 39.8571L12.7255 41.4496C13.1661 41.8563 13.8632 41.7864 14.2143 41.3003L15.9215 38.9369C16.3038 38.4077 17.0823 38.3807 17.5003 38.8822L20.0564 41.949C20.4899 42.469 21.304 42.4171 21.6678 41.8462L24.3041 37.7101C24.7073 37.0775 25.6378 37.0977 26.0132 37.7473L28.3059 41.7146C28.4845 42.0238 28.8146 42.2143 29.1717 42.2143H30.839C31.3409 42.2143 31.7651 41.8422 31.8305 41.3445L32.2094 38.4589C32.2555 38.1081 32.4835 37.8078 32.809 37.6691L35.2856 36.6142C35.6932 36.4406 36.1665 36.5559 36.4486 36.8976L37.4193 38.0734C37.8361 38.5783 38.6177 38.5531 39.0011 38.0223L42.6832 32.9249C42.7498 32.8328 42.8001 32.73 42.8321 32.6209L46.2621 20.9327C46.3871 20.5068 46.7779 20.2143 47.2217 20.2143H47.6994C48.1486 20.2143 48.5427 19.9148 48.6629 19.482L50.4208 13.1549C50.685 12.204 52.0208 12.1701 52.3329 13.1063L53.867 17.7077C54.1583 18.5814 55.3758 18.6301 55.736 17.7825L56.8353 15.1955C57.1046 14.5617 57.9993 14.5518 58.2826 15.1794V15.1794C58.5553 15.7834 59.4056 15.8036 59.7067 15.2132L61.4653 11.7641C61.838 11.0333 62.8837 11.0374 63.2506 11.7711L64.5668 14.403C64.7734 14.8161 65.236 15.034 65.686 14.9302L67.8416 14.4328C68.1458 14.3626 68.4653 14.4385 68.7054 14.6379L70.91 16.4691C71.0738 16.6052 71.1899 16.79 71.2414 16.9967L73.2484 25.0541C73.4833 25.9971 74.7893 26.0848 75.1481 25.1816L76.5046 21.7674C76.7837 21.0648 77.7114 20.9141 78.1986 21.4922L78.8084 22.2159C78.9985 22.4413 79.2783 22.5714 79.5731 22.5714H83.131C83.4522 22.5714 83.7499 22.4031 83.9156 22.128V22.128C84.338 21.4263 85.3987 21.5896 85.5905 22.3859L86.3021 25.3412C86.4102 25.7905 86.8122 26.1071 87.2743 26.1071H87.9855C88.4399 26.1071 88.8372 26.4136 88.9527 26.8531L90.6443 33.293C90.826 33.9848 91.6542 34.2677 92.2211 33.8316L93.2802 33.0171C93.4741 32.868 93.6065 32.6531 93.6527 32.413L94.5 28" stroke="#30E0A1" stroke-linecap="round"/>
</g>
<path d="M11 39.8571L12.7255 41.4496C13.1661 41.8563 13.8632 41.7864 14.2143 41.3003L15.9215 38.9369C16.3038 38.4077 17.0823 38.3807 17.5003 38.8822L20.0564 41.949C20.4899 42.469 21.304 42.4171 21.6678 41.8462L24.3041 37.7101C24.7073 37.0775 25.6378 37.0977 26.0132 37.7473L28.3059 41.7146C28.4845 42.0238 28.8146 42.2143 29.1717 42.2143H30.839C31.3409 42.2143 31.7651 41.8422 31.8305 41.3445L32.2094 38.4589C32.2555 38.1081 32.4835 37.8078 32.809 37.6691L35.2856 36.6142C35.6932 36.4406 36.1665 36.5559 36.4486 36.8976L37.4193 38.0734C37.8361 38.5783 38.6177 38.5531 39.0011 38.0223L42.6832 32.9249C42.7498 32.8328 42.8001 32.73 42.8321 32.6209L46.2621 20.9327C46.3871 20.5068 46.7779 20.2143 47.2217 20.2143H47.6994C48.1486 20.2143 48.5427 19.9148 48.6629 19.482L50.4208 13.1549C50.685 12.204 52.0208 12.1701 52.3329 13.1063L53.867 17.7077C54.1583 18.5814 55.3758 18.6301 55.736 17.7825L56.8353 15.1955C57.1046 14.5617 57.9993 14.5518 58.2826 15.1794V15.1794C58.5553 15.7834 59.4056 15.8036 59.7067 15.2132L61.4653 11.7641C61.838 11.0333 62.8837 11.0374 63.2506 11.7711L64.5668 14.403C64.7734 14.8161 65.236 15.034 65.686 14.9302L67.8416 14.4328C68.1458 14.3626 68.4653 14.4385 68.7054 14.6379L70.91 16.4691C71.0738 16.6052 71.1899 16.79 71.2414 16.9967L73.2484 25.0541C73.4833 25.9971 74.7893 26.0848 75.1481 25.1816L76.5046 21.7674C76.7837 21.0648 77.7114 20.9141 78.1986 21.4922L78.8084 22.2159C78.9985 22.4413 79.2783 22.5714 79.5731 22.5714H83.131C83.4522 22.5714 83.7499 22.4031 83.9156 22.128V22.128C84.338 21.4263 85.3987 21.5896 85.5905 22.3859L86.3021 25.3412C86.4102 25.7905 86.8122 26.1071 87.2743 26.1071H87.9855C88.4399 26.1071 88.8372 26.4136 88.9527 26.8531L90.6443 33.293C90.826 33.9848 91.6542 34.2677 92.2211 33.8316L93.2802 33.0171C93.4741 32.868 93.6065 32.6531 93.6527 32.413L94.5 28" stroke="#30E0A1" stroke-linecap="round"/>
<defs>
<filter id="filter0_f_0_113" x="0.5" y="0.718399" width="104.5" height="52.0903" filterUnits="userSpaceOnUse" color-interpolation-filters="sRGB">
<feFlood flood-opacity="0" result="BackgroundImageFix"/>
<feBlend mode="normal" in="SourceGraphic" in2="BackgroundImageFix" result="shape"/>
<feGaussianBlur stdDeviation="5" result="effect1_foregroundBlur_0_113"/>
</filter>
<linearGradient id="paint0_linear_0_113" x1="53" y1="10" x2="53" y2="45" gradientUnits="userSpaceOnUse">
<stop stop-color="#30E0A1"/>
<stop offset="1" stop-color="#221E34" stop-opacity="0"/>
</linearGradient>
</defs>
</svg>
