<svg width="24" height="24" viewBox="0 0 24 24" fill="none" xmlns="http://www.w3.org/2000/svg">
<path d="M13.2 8.39999C16.158 8.39999 17.8356 10.2888 18.0792 12.5688H18.1536C20.0568 12.5688 21.6 14.0532 21.6 15.8844C21.6 17.7156 20.0568 19.2 18.1536 19.2H8.24638C6.34318 19.2 4.79998 17.7156 4.79998 15.8844C4.79998 14.0532 6.34318 12.5688 8.24638 12.5688H8.32078C8.56678 10.2732 10.242 8.39999 13.2 8.39999ZM10.0704 4.79999C11.8176 4.79999 13.3416 5.79359 14.094 7.25399C13.7974 7.21762 13.4988 7.19959 13.2 7.19999C10.332 7.19999 8.24158 8.76839 7.49518 11.1432L7.42078 11.4L7.36558 11.6244L7.16758 11.6604C6.44291 11.808 5.76604 12.1327 5.19735 12.6055C4.62866 13.0783 4.18584 13.6845 3.90838 14.37C3.33671 14.0217 2.89103 13.5002 2.63611 12.8812C2.3812 12.2622 2.33034 11.5781 2.49093 10.9282C2.65152 10.2783 3.0152 9.69661 3.52908 9.26762C4.04297 8.83863 4.68028 8.58471 5.34838 8.54279L5.61478 8.53679C5.79982 7.48958 6.34786 6.54103 7.16266 5.85768C7.97746 5.17432 9.00696 4.79984 10.0704 4.79999V4.79999Z" fill="url(#paint0_linear_27_53)"/>
<defs>
<linearGradient id="paint0_linear_27_53" x1="1.94188" y1="1.24799" x2="23.4213" y2="21.3402" gradientUnits="userSpaceOnUse">
<stop stop-color="white"/>
<stop offset="1" stop-color="white" stop-opacity="0"/>
</linearGradient>
</defs>
</svg>
