<svg width="24" height="24" viewBox="0 0 24 24" fill="none" xmlns="http://www.w3.org/2000/svg">
<path d="M13 20C13.2652 20 13.5196 20.1054 13.7071 20.2929C13.8947 20.4804 14 20.7348 14 21C14 21.2652 13.8947 21.5196 13.7071 21.7071C13.5196 21.8946 13.2652 22 13 22C12.7348 22 12.4805 21.8946 12.2929 21.7071C12.1054 21.5196 12 21.2652 12 21C12 20.7348 12.1054 20.4804 12.2929 20.2929C12.4805 20.1054 12.7348 20 13 20V20ZM9.50002 19C9.76524 19 10.0196 19.1054 10.2071 19.2929C10.3947 19.4804 10.5 19.7348 10.5 20C10.5 20.2652 10.3947 20.5196 10.2071 20.7071C10.0196 20.8946 9.76524 21 9.50002 21C9.2348 21 8.98045 20.8946 8.79291 20.7071C8.60538 20.5196 8.50002 20.2652 8.50002 20C8.50002 19.7348 8.60538 19.4804 8.79291 19.2929C8.98045 19.1054 9.2348 19 9.50002 19V19ZM16.5 19C16.7652 19 17.0196 19.1054 17.2071 19.2929C17.3947 19.4804 17.5 19.7348 17.5 20C17.5 20.2652 17.3947 20.5196 17.2071 20.7071C17.0196 20.8946 16.7652 21 16.5 21C16.2348 21 15.9805 20.8946 15.7929 20.7071C15.6054 20.5196 15.5 20.2652 15.5 20C15.5 19.7348 15.6054 19.4804 15.7929 19.2929C15.9805 19.1054 16.2348 19 16.5 19ZM12.9995 6.005C16.168 6.005 17.9655 8.102 18.227 10.635H18.307C20.346 10.635 21.999 12.2835 21.999 14.3175C21.999 16.3515 20.346 18 18.307 18H7.69202C5.65302 18 4.00002 16.3515 4.00002 14.3175C4.00002 12.2835 5.65302 10.635 7.69202 10.635H7.77202C8.03502 8.085 9.83102 6.005 12.9995 6.005V6.005ZM6.58902 2.001C7.38402 2.044 8.15602 2.273 8.85202 2.675C9.86673 3.25868 10.6475 4.17637 11.061 5.2715C9.05302 5.8435 7.62252 7.313 7.04752 9.296L7.00152 9.462L6.94402 9.7L6.73752 9.7385C5.60969 9.97705 4.6097 10.6238 3.92952 11.5545L3.77452 11.4685C3.12127 11.0924 2.56028 10.5751 2.13252 9.9545C2.06728 9.85979 2.02467 9.75136 2.00799 9.63757C1.99132 9.52378 2.00101 9.40767 2.03634 9.29823C2.07166 9.18878 2.13166 9.08892 2.21171 9.00634C2.29176 8.92377 2.38972 8.8607 2.49802 8.822C4.14052 8.234 5.02552 7.572 5.53152 6.606C6.08402 5.551 6.18652 4.432 5.81952 2.929C5.79175 2.8152 5.79098 2.69647 5.81728 2.58232C5.84358 2.46817 5.89623 2.36175 5.971 2.27157C6.04577 2.1814 6.14061 2.10996 6.24792 2.06298C6.35523 2.016 6.47204 1.99477 6.58902 2.001V2.001Z" fill="url(#paint0_linear_27_59)"/>
<defs>
<linearGradient id="paint0_linear_27_59" x1="1.52389" y1="-2.93341" x2="29.6374" y2="16.788" gradientUnits="userSpaceOnUse">
<stop stop-color="white"/>
<stop offset="1" stop-color="white" stop-opacity="0"/>
</linearGradient>
</defs>
</svg>
