<svg width="24" height="24" viewBox="0 0 24 24" fill="none" xmlns="http://www.w3.org/2000/svg">
<path d="M12 2C12.1989 2 12.3897 2.07902 12.5303 2.21967C12.671 2.36032 12.75 2.55109 12.75 2.75V4.25C12.75 4.44891 12.671 4.63968 12.5303 4.78033C12.3897 4.92098 12.1989 5 12 5C11.8011 5 11.6103 4.92098 11.4697 4.78033C11.329 4.63968 11.25 4.44891 11.25 4.25V2.75C11.25 2.55109 11.329 2.36032 11.4697 2.21967C11.6103 2.07902 11.8011 2 12 2ZM17 12C17 13.3261 16.4732 14.5979 15.5355 15.5355C14.5979 16.4732 13.3261 17 12 17C10.6739 17 9.40215 16.4732 8.46447 15.5355C7.52678 14.5979 7 13.3261 7 12C7 10.6739 7.52678 9.40215 8.46447 8.46447C9.40215 7.52678 10.6739 7 12 7C13.3261 7 14.5979 7.52678 15.5355 8.46447C16.4732 9.40215 17 10.6739 17 12V12ZM21.25 12.75C21.4489 12.75 21.6397 12.671 21.7803 12.5303C21.921 12.3897 22 12.1989 22 12C22 11.8011 21.921 11.6103 21.7803 11.4697C21.6397 11.329 21.4489 11.25 21.25 11.25H19.75C19.5511 11.25 19.3603 11.329 19.2197 11.4697C19.079 11.6103 19 11.8011 19 12C19 12.1989 19.079 12.3897 19.2197 12.5303C19.3603 12.671 19.5511 12.75 19.75 12.75H21.25ZM12 19C12.1989 19 12.3897 19.079 12.5303 19.2197C12.671 19.3603 12.75 19.5511 12.75 19.75V21.25C12.75 21.4489 12.671 21.6397 12.5303 21.7803C12.3897 21.921 12.1989 22 12 22C11.8011 22 11.6103 21.921 11.4697 21.7803C11.329 21.6397 11.25 21.4489 11.25 21.25V19.75C11.25 19.5511 11.329 19.3603 11.4697 19.2197C11.6103 19.079 11.8011 19 12 19ZM4.25 12.75C4.44891 12.75 4.63968 12.671 4.78033 12.5303C4.92098 12.3897 5 12.1989 5 12C5 11.8011 4.92098 11.6103 4.78033 11.4697C4.63968 11.329 4.44891 11.25 4.25 11.25H2.75C2.55109 11.25 2.36032 11.329 2.21967 11.4697C2.07902 11.6103 2 11.8011 2 12C2 12.1989 2.07902 12.3897 2.21967 12.5303C2.36032 12.671 2.55109 12.75 2.75 12.75H4.25ZM4.22 4.22C4.36063 4.07955 4.55125 4.00066 4.75 4.00066C4.94875 4.00066 5.13937 4.07955 5.28 4.22L6.78 5.72C6.91248 5.86217 6.9846 6.05022 6.98117 6.24452C6.97775 6.43882 6.89903 6.62421 6.76162 6.76162C6.62421 6.89903 6.43882 6.97775 6.24452 6.98117C6.05022 6.9846 5.86217 6.91248 5.72 6.78L4.22 5.28C4.07955 5.13937 4.00066 4.94875 4.00066 4.75C4.00066 4.55125 4.07955 4.36063 4.22 4.22V4.22ZM5.28 19.78C5.21134 19.8537 5.12854 19.9128 5.03654 19.9538C4.94454 19.9948 4.84523 20.0168 4.74452 20.0186C4.64382 20.0204 4.54379 20.0018 4.4504 19.9641C4.35701 19.9264 4.27218 19.8703 4.20096 19.799C4.12974 19.7278 4.0736 19.643 4.03588 19.5496C3.99816 19.4562 3.97963 19.3562 3.98141 19.2555C3.98319 19.1548 4.00523 19.0555 4.04622 18.9635C4.08721 18.8715 4.14631 18.7887 4.22 18.72L5.72 17.22C5.78866 17.1463 5.87146 17.0872 5.96346 17.0462C6.05546 17.0052 6.15477 16.9832 6.25548 16.9814C6.35618 16.9796 6.45621 16.9982 6.5496 17.0359C6.64299 17.0736 6.72782 17.1297 6.79904 17.201C6.87026 17.2722 6.9264 17.357 6.96412 17.4504C7.00184 17.5438 7.02037 17.6438 7.01859 17.7445C7.01681 17.8452 6.99477 17.9445 6.95378 18.0365C6.91279 18.1285 6.85369 18.2113 6.78 18.28L5.28 19.78ZM19.78 4.22C19.6394 4.07955 19.4488 4.00066 19.25 4.00066C19.0512 4.00066 18.8606 4.07955 18.72 4.22L17.22 5.72C17.0875 5.86217 17.0154 6.05022 17.0188 6.24452C17.0223 6.43882 17.101 6.62421 17.2384 6.76162C17.3758 6.89903 17.5612 6.97775 17.7555 6.98117C17.9498 6.9846 18.1378 6.91248 18.28 6.78L19.78 5.28C19.9205 5.13937 19.9993 4.94875 19.9993 4.75C19.9993 4.55125 19.9205 4.36063 19.78 4.22V4.22ZM18.72 19.78C18.7887 19.8537 18.8715 19.9128 18.9635 19.9538C19.0555 19.9948 19.1548 20.0168 19.2555 20.0186C19.3562 20.0204 19.4562 20.0018 19.5496 19.9641C19.643 19.9264 19.7278 19.8703 19.799 19.799C19.8703 19.7278 19.9264 19.643 19.9641 19.5496C20.0018 19.4562 20.0204 19.3562 20.0186 19.2555C20.0168 19.1548 19.9948 19.0555 19.9538 18.9635C19.9128 18.8715 19.8537 18.7887 19.78 18.72L18.28 17.22C18.2113 17.1463 18.1285 17.0872 18.0365 17.0462C17.9445 17.0052 17.8452 16.9832 17.7445 16.9814C17.6438 16.9796 17.5438 16.9982 17.4504 17.0359C17.357 17.0736 17.2722 17.1297 17.201 17.201C17.1297 17.2722 17.0736 17.357 17.0359 17.4504C16.9982 17.5438 16.9796 17.6438 16.9814 17.7445C16.9832 17.8452 17.0052 17.9445 17.0462 18.0365C17.0872 18.1285 17.1463 18.2113 17.22 18.28L18.72 19.78Z" fill="url(#paint0_linear_27_62)"/>
<defs>
<linearGradient id="paint0_linear_27_62" x1="1.52381" y1="-2.93333" x2="29.6378" y2="16.7895" gradientUnits="userSpaceOnUse">
<stop stop-color="white"/>
<stop offset="1" stop-color="white" stop-opacity="0"/>
</linearGradient>
</defs>
</svg>
