<svg width="24" height="24" viewBox="0 0 24 24" fill="none" xmlns="http://www.w3.org/2000/svg">
<path d="M11.9995 3C15.168 3 16.9655 5.0975 17.227 7.63H17.307C19.346 7.63 20.999 9.279 20.999 11.3125C20.999 13.3465 19.346 14.995 17.307 14.995L16.4455 14.9955L16.4435 15H16.1505L15.165 16.69C15.1236 16.7609 15.0687 16.823 15.0033 16.8727C14.938 16.9224 14.8635 16.9587 14.7841 16.9796C14.7047 17.0005 14.622 17.0055 14.5406 16.9944C14.4593 16.9834 14.3809 16.9564 14.31 16.915C14.2391 16.8736 14.177 16.8187 14.1273 16.7533C14.0776 16.688 14.0413 16.6135 14.0204 16.5341C13.9995 16.4547 13.9945 16.372 14.0056 16.2906C14.0166 16.2093 14.0436 16.1309 14.085 16.06L14.7065 14.995L12.577 14.9955L12.5755 15H12.1505L11.165 16.69C11.1236 16.7609 11.0687 16.823 11.0033 16.8727C10.938 16.9224 10.8635 16.9587 10.7841 16.9796C10.7047 17.0005 10.622 17.0055 10.5406 16.9944C10.4593 16.9834 10.3809 16.9564 10.31 16.915C10.2391 16.8736 10.177 16.8187 10.1273 16.7533C10.0776 16.688 10.0413 16.6135 10.0204 16.5341C9.99953 16.4547 9.99448 16.372 10.0056 16.2906C10.0166 16.2093 10.0436 16.1309 10.085 16.06L10.7065 14.995L8.709 14.9955L8.7075 15H8.151L7.165 16.69C7.12363 16.7609 7.0687 16.823 7.00335 16.8727C6.93799 16.9224 6.86349 16.9587 6.7841 16.9796C6.70471 17.0005 6.62197 17.0055 6.54063 16.9944C6.45928 16.9834 6.38091 16.9564 6.31 16.915C6.23909 16.8736 6.17701 16.8187 6.12733 16.7533C6.07764 16.688 6.04132 16.6135 6.02042 16.5341C5.99953 16.4547 5.99448 16.372 6.00556 16.2906C6.01664 16.2093 6.04363 16.1309 6.085 16.06L6.7065 14.995H6.692C4.653 14.995 3 13.3465 3 11.3125C3 9.279 4.653 7.63 6.692 7.63H6.772C7.035 5.0805 8.831 3 12 3H11.9995Z" fill="url(#paint0_linear_27_48)"/>
<path d="M8.81498 17.335C8.88591 17.3763 8.94799 17.4312 8.99769 17.4966C9.04739 17.562 9.08372 17.6365 9.10462 17.7159C9.12551 17.7953 9.13056 17.878 9.11947 17.9593C9.10837 18.0407 9.08136 18.1191 9.03998 18.19L8.16498 19.69C8.12361 19.7609 8.06868 19.823 8.00333 19.8726C7.93797 19.9223 7.86347 19.9587 7.78408 19.9795C7.70468 20.0004 7.62195 20.0055 7.5406 19.9944C7.45926 19.9833 7.38089 19.9563 7.30998 19.915C7.23906 19.8736 7.17699 19.8187 7.12731 19.7533C7.07762 19.688 7.04129 19.6135 7.0204 19.5341C6.99951 19.4547 6.99446 19.3719 7.00554 19.2906C7.01662 19.2093 7.04361 19.1309 7.08498 19.06L7.95998 17.56C8.00133 17.489 8.05625 17.427 8.1216 17.3773C8.18696 17.3276 8.26146 17.2912 8.34086 17.2703C8.42026 17.2494 8.503 17.2444 8.58435 17.2555C8.6657 17.2666 8.74407 17.2936 8.81498 17.335Z" fill="url(#paint1_linear_27_48)"/>
<path d="M13.04 18.19C13.0813 18.1191 13.1083 18.0407 13.1194 17.9593C13.1305 17.878 13.1254 17.7953 13.1046 17.7159C13.0837 17.6365 13.0473 17.562 12.9976 17.4966C12.948 17.4313 12.8859 17.3763 12.815 17.335C12.7441 17.2936 12.6657 17.2666 12.5843 17.2555C12.503 17.2445 12.4203 17.2495 12.3409 17.2704C12.2615 17.2913 12.187 17.3276 12.1216 17.3773C12.0563 17.427 12.0013 17.4891 11.96 17.56L11.085 19.06C11.0436 19.1309 11.0166 19.2093 11.0055 19.2906C10.9945 19.3719 10.9995 19.4547 11.0204 19.5341C11.0413 19.6135 11.0776 19.688 11.1273 19.7533C11.177 19.8187 11.2391 19.8736 11.31 19.915C11.3809 19.9563 11.4593 19.9833 11.5406 19.9944C11.6219 20.0055 11.7047 20.0004 11.7841 19.9796C11.8635 19.9587 11.938 19.9223 12.0033 19.8726C12.0687 19.823 12.1236 19.7609 12.165 19.69L13.04 18.19Z" fill="url(#paint2_linear_27_48)"/>
<defs>
<linearGradient id="paint0_linear_27_48" x1="2.57145" y1="-0.453372" x2="23.3899" y2="18.323" gradientUnits="userSpaceOnUse">
<stop stop-color="white"/>
<stop offset="1" stop-color="white" stop-opacity="0"/>
</linearGradient>
<linearGradient id="paint1_linear_27_48" x1="6.94921" y1="16.5713" x2="10.3946" y2="18.4391" gradientUnits="userSpaceOnUse">
<stop stop-color="white"/>
<stop offset="1" stop-color="white" stop-opacity="0"/>
</linearGradient>
<linearGradient id="paint2_linear_27_48" x1="10.9492" y1="16.5714" x2="14.3946" y2="18.4392" gradientUnits="userSpaceOnUse">
<stop stop-color="white"/>
<stop offset="1" stop-color="white" stop-opacity="0"/>
</linearGradient>
</defs>
</svg>
