<svg width="24" height="24" viewBox="0 0 24 24" fill="none" xmlns="http://www.w3.org/2000/svg">
<path d="M13.2 19.9992C13.4123 19.9992 13.6159 20.0835 13.766 20.2336C13.9161 20.3837 14.0004 20.5873 14.0004 20.7996C14.0004 21.0119 13.9161 21.2155 13.766 21.3656C13.6159 21.5157 13.4123 21.6 13.2 21.6C12.9877 21.6 12.7842 21.5157 12.6341 21.3656C12.484 21.2155 12.3996 21.0119 12.3996 20.7996C12.3996 20.5873 12.484 20.3837 12.6341 20.2336C12.7842 20.0835 12.9877 19.9992 13.2 19.9992ZM10.4004 19.2C10.5081 19.1958 10.6154 19.2134 10.7161 19.2518C10.8168 19.2901 10.9087 19.3483 10.9863 19.423C11.0639 19.4977 11.1257 19.5873 11.1679 19.6864C11.2101 19.7855 11.2318 19.8921 11.2318 19.9998C11.2318 20.1075 11.2101 20.2141 11.1679 20.3133C11.1257 20.4124 11.0639 20.502 10.9863 20.5766C10.9087 20.6513 10.8168 20.7096 10.7161 20.7479C10.6154 20.7862 10.5081 20.8038 10.4004 20.7996C10.1937 20.7916 9.99804 20.7038 9.85459 20.5547C9.71114 20.4056 9.63101 20.2067 9.63101 19.9998C9.63101 19.7929 9.71114 19.594 9.85459 19.4449C9.99804 19.2958 10.1937 19.208 10.4004 19.2V19.2ZM15.9996 19.2C16.1073 19.1958 16.2146 19.2134 16.3153 19.2518C16.416 19.2901 16.5079 19.3483 16.5855 19.423C16.6631 19.4977 16.7249 19.5873 16.7671 19.6864C16.8093 19.7855 16.831 19.8921 16.831 19.9998C16.831 20.1075 16.8093 20.2141 16.7671 20.3133C16.7249 20.4124 16.6631 20.502 16.5855 20.5766C16.5079 20.6513 16.416 20.7096 16.3153 20.7479C16.2146 20.7862 16.1073 20.8038 15.9996 20.7996C15.7929 20.7916 15.5972 20.7038 15.4538 20.5547C15.3103 20.4056 15.2302 20.2067 15.2302 19.9998C15.2302 19.7929 15.3103 19.594 15.4538 19.4449C15.5972 19.2958 15.7929 19.208 15.9996 19.2V19.2ZM13.2 7.20001C16.158 7.20001 17.8356 9.08761 18.0792 11.3688H18.1536C20.0568 11.3688 21.6 12.8532 21.6 14.6844C21.6 16.5156 20.0568 18 18.1536 18H8.24643C6.34323 18 4.80003 16.5156 4.80003 14.6844C4.80003 12.8532 6.34323 11.3688 8.24643 11.3688H8.32083C8.56683 9.07201 10.242 7.20001 13.2 7.20001ZM4.56363 10.44C4.60986 10.5729 4.60791 10.7178 4.55811 10.8495C4.50832 10.9811 4.41385 11.091 4.29123 11.16L4.19163 11.2032L3.23043 11.5344C3.08858 11.584 2.93327 11.5786 2.79521 11.5193C2.65715 11.4599 2.5464 11.3509 2.48486 11.2138C2.42332 11.0767 2.41548 10.9215 2.46287 10.7788C2.51027 10.6362 2.60946 10.5166 2.74083 10.4436L2.83923 10.4004L3.80163 10.0692C3.95201 10.0176 4.11672 10.0278 4.2596 10.0975C4.40247 10.1673 4.51182 10.2909 4.56363 10.4412V10.44ZM10.704 5.40001C11.1024 5.59441 11.454 5.84761 11.7516 6.14401C9.63723 6.58081 8.11563 7.98361 7.50003 9.93121L7.42203 10.2L7.36683 10.4244L7.16883 10.4604C6.63648 10.57 6.12832 10.7749 5.66883 11.0652C5.205 10.3427 4.99013 9.48836 5.05698 8.6324C5.12382 7.77643 5.46872 6.9658 6.03909 6.32407C6.60946 5.68233 7.37402 5.2447 8.21622 5.07787C9.05843 4.91104 9.93209 5.02417 10.704 5.40001V5.40001ZM3.50043 5.60401L3.60003 5.64241L4.51443 6.08761C4.64923 6.15314 4.75462 6.26675 4.80986 6.40608C4.86511 6.54541 4.8662 6.70038 4.81293 6.84047C4.75966 6.98057 4.65588 7.09566 4.52202 7.16309C4.38816 7.23051 4.23391 7.2454 4.08963 7.20481L3.98883 7.16641L3.07443 6.72121C2.93963 6.65568 2.83423 6.54207 2.77899 6.40274C2.72374 6.26341 2.72265 6.10844 2.77592 5.96834C2.82919 5.82825 2.93297 5.71316 3.06683 5.64573C3.20069 5.5783 3.35494 5.56342 3.49923 5.60401H3.50043ZM11.988 2.75401C12.1144 2.81565 12.2151 2.9197 12.2725 3.048C12.33 3.1763 12.3406 3.3207 12.3024 3.45601L12.264 3.55681L11.8188 4.47121C11.7533 4.60601 11.6397 4.7114 11.5004 4.76665C11.361 4.82189 11.2061 4.82299 11.066 4.76972C10.9259 4.71645 10.8108 4.61267 10.7433 4.47881C10.6759 4.34494 10.661 4.19069 10.7016 4.04641L10.74 3.94441L11.1864 3.03001C11.2562 2.88721 11.3798 2.77794 11.5301 2.7262C11.6804 2.67445 11.8451 2.68445 11.988 2.75401V2.75401ZM7.44003 2.71561L7.48443 2.81401L7.81563 3.77641C7.86431 3.91808 7.85825 4.07283 7.79862 4.21025C7.73899 4.34767 7.63011 4.45781 7.49339 4.51903C7.35667 4.58025 7.202 4.5881 7.05978 4.54106C6.91756 4.49402 6.79808 4.39548 6.72483 4.26481L6.68163 4.16641L6.35043 3.20521C6.3025 3.06388 6.30897 2.90976 6.36857 2.77294C6.42816 2.63612 6.53661 2.52642 6.67273 2.46525C6.80886 2.40408 6.96289 2.39584 7.10477 2.44213C7.24664 2.48843 7.36617 2.58593 7.44003 2.71561V2.71561Z" fill="url(#paint0_linear_27_56)"/>
<defs>
<linearGradient id="paint0_linear_27_56" x1="1.97587" y1="-2.32037" x2="28.9382" y2="16.5751" gradientUnits="userSpaceOnUse">
<stop stop-color="white"/>
<stop offset="1" stop-color="white" stop-opacity="0"/>
</linearGradient>
</defs>
</svg>
