<svg width="24" height="24" viewBox="0 0 24 24" fill="none" xmlns="http://www.w3.org/2000/svg">
<path d="M17.5878 12.4051C16.3968 8.48819 12.8915 4.30791 12.7133 4.09671C12.6855 4.06624 12.6516 4.0419 12.6138 4.02525C12.5761 4.0086 12.5353 4 12.494 4C12.4527 4 12.4119 4.0086 12.3742 4.02525C12.3364 4.0419 12.3025 4.06624 12.2747 4.09671C12.0965 4.30791 8.59063 8.48759 7.39901 12.4051C7.1548 13.2085 7 14.0023 7 14.7469C7 17.7758 9.46485 20.24 12.4937 20.24C15.5226 20.24 17.9862 17.7758 17.9862 14.7469C17.9868 14.0023 17.832 13.2091 17.5878 12.4051ZM12.4943 19.6664C9.78165 19.6664 7.57481 17.4595 7.57481 14.7475C7.57481 14.0113 7.73861 13.2157 8.00022 12.4057C9.04244 9.1806 11.7101 5.71194 12.4943 4.73692C13.2785 5.71194 15.9462 9.1806 16.9872 12.4057C17.2488 13.2163 17.4126 14.0113 17.4126 14.7475C17.4126 17.4595 15.2064 19.6664 12.4943 19.6664Z" fill="url(#paint0_linear_0_45)"/>
<path d="M9.41505 12.4051C9.11505 13.1671 8.91464 13.9303 8.91464 14.6251C8.91464 15.5744 9.29175 16.4848 9.96301 17.1561C10.6343 17.8274 11.5447 18.2045 12.494 18.2045C13.4433 18.2045 14.3537 17.8274 15.025 17.1561C15.6963 16.4848 16.0734 15.5744 16.0734 14.6251C16.0734 13.9303 15.873 13.1671 15.573 12.4051H9.41505Z" fill="url(#paint1_linear_0_45)"/>
<defs>
<linearGradient id="paint0_linear_0_45" x1="12.4931" y1="4" x2="24.0665" y2="20.3944" gradientUnits="userSpaceOnUse">
<stop stop-color="white"/>
<stop offset="1" stop-color="white" stop-opacity="0"/>
</linearGradient>
<linearGradient id="paint1_linear_0_45" x1="5.56618" y1="7.89418" x2="24.5665" y2="25.3945" gradientUnits="userSpaceOnUse">
<stop stop-color="white"/>
<stop offset="1" stop-color="white" stop-opacity="0"/>
</linearGradient>
</defs>
</svg>
